<svg width="11" height="20" viewBox="0 0 11 20" fill="none" xmlns="http://www.w3.org/2000/svg">
<path d="M-4.76837e-06 0.98059V18.6211C0.000394821 18.7997 0.0355797 18.9748 0.101763 19.1274C0.167945 19.2801 0.262618 19.4047 0.375592 19.4876C0.488566 19.5706 0.615564 19.6088 0.742914 19.5983C0.870264 19.5877 0.993143 19.5287 1.09833 19.4277L10.1986 10.6074C10.5759 10.2419 10.5759 9.36179 10.1986 8.99526L1.09833 0.175007C0.993362 0.0729127 0.870421 0.0130421 0.74286 0.0019002C0.615297 -0.0092417 0.487994 0.0287713 0.374781 0.111809C0.261567 0.194847 0.166772 0.319734 0.100697 0.472901C0.0346222 0.626067 -0.000205994 0.801657 -4.76837e-06 0.98059Z" fill="white"/>
</svg>
