<svg width="75" height="75" viewBox="0 0 75 75" fill="none" xmlns="http://www.w3.org/2000/svg">
<rect width="75" height="75" rx="10" fill="black"/>
<path d="M27.5999 32.0899L21.1065 37.5005L27.5999 42.911C27.8152 43.0875 27.9935 43.3048 28.1245 43.5506C28.2554 43.7963 28.3364 44.0655 28.3627 44.3427C28.3891 44.6198 28.3604 44.8995 28.2781 45.1655C28.1959 45.4315 28.0618 45.6786 27.8836 45.8925C27.7054 46.1065 27.4866 46.283 27.2399 46.412C26.9931 46.5409 26.7233 46.6198 26.4459 46.6439C26.1685 46.6681 25.8891 46.6371 25.6237 46.5527C25.3584 46.4684 25.1124 46.3323 24.8999 46.1524L16.4624 39.1212C16.2248 38.9232 16.0336 38.6754 15.9024 38.3953C15.7711 38.1152 15.7031 37.8097 15.7031 37.5005C15.7031 37.1912 15.7711 36.8857 15.9024 36.6056C16.0336 36.3255 16.2248 36.0777 16.4624 35.8798L24.8999 28.8485C25.3303 28.4957 25.8827 28.3274 26.4368 28.3801C26.9908 28.4328 27.5015 28.7023 27.8577 29.13C28.2139 29.5576 28.3866 30.1086 28.3384 30.663C28.2901 31.2174 28.0246 31.7303 27.5999 32.0899ZM58.5374 35.8798L50.0999 28.8485C49.8874 28.6686 49.6414 28.5325 49.376 28.4482C49.1107 28.3638 48.8313 28.3328 48.5539 28.357C48.2765 28.3812 48.0067 28.46 47.7599 28.5889C47.5132 28.7179 47.2944 28.8944 47.1162 29.1084C46.938 29.3223 46.8039 29.5694 46.7217 29.8354C46.6394 30.1014 46.6107 30.3811 46.6371 30.6582C46.6634 30.9354 46.7444 31.2046 46.8753 31.4503C47.0063 31.6961 47.1845 31.9134 47.3999 32.0899L53.8933 37.5005L47.3999 42.911C47.1845 43.0875 47.0063 43.3048 46.8753 43.5506C46.7444 43.7963 46.6634 44.0655 46.6371 44.3427C46.6107 44.6198 46.6394 44.8995 46.7217 45.1655C46.8039 45.4315 46.938 45.6786 47.1162 45.8925C47.2944 46.1065 47.5132 46.283 47.7599 46.412C48.0067 46.5409 48.2765 46.6198 48.5539 46.6439C48.8313 46.6681 49.1107 46.6371 49.376 46.5527C49.6414 46.4684 49.8874 46.3323 50.0999 46.1524L58.5374 39.1212C58.775 38.9232 58.9662 38.6754 59.0974 38.3953C59.2286 38.1152 59.2967 37.8097 59.2967 37.5005C59.2967 37.1912 59.2286 36.8857 59.0974 36.6056C58.9662 36.3255 58.775 36.0777 58.5374 35.8798ZM43.8456 20.0489C43.5852 19.9542 43.3087 19.9117 43.0319 19.9239C42.7551 19.9361 42.4834 20.0027 42.2324 20.1199C41.9813 20.2371 41.7558 20.4026 41.5687 20.607C41.3817 20.8114 41.2367 21.0506 41.1421 21.311L29.8921 52.2485C29.7014 52.7741 29.7272 53.354 29.9639 53.8606C30.2005 54.3673 30.6287 54.7592 31.1542 54.9503C31.3849 55.0355 31.629 55.0789 31.8749 55.0786C32.308 55.0787 32.7306 54.9454 33.0853 54.697C33.4401 54.4485 33.7097 54.0969 33.8577 53.6899L45.1077 22.7524C45.2024 22.492 45.2449 22.2155 45.2327 21.9387C45.2205 21.6619 45.1539 21.3903 45.0367 21.1392C44.9195 20.8881 44.754 20.6626 44.5496 20.4756C44.3452 20.2885 44.106 20.1435 43.8456 20.0489Z" fill="white"/>
</svg>
