<svg width="24" height="24" viewBox="0 0 24 24" fill="none" xmlns="http://www.w3.org/2000/svg">
<g clip-path="url(#clip0_98_126)">
<path d="M5.45312 7.93104V23.7449H0.296875V7.93104H5.45312ZM5.78125 3.04806C5.79167 3.82466 5.52865 4.47359 4.99219 4.99487C4.45573 5.51614 3.75 5.77678 2.875 5.77678H2.84375C1.98958 5.77678 1.30208 5.51614 0.78125 4.99487C0.260417 4.47359 0 3.82466 0 3.04806C0 2.26083 0.268229 1.60923 0.804688 1.09327C1.34115 0.577315 2.04167 0.319336 2.90625 0.319336C3.77083 0.319336 4.46354 0.577315 4.98438 1.09327C5.50521 1.60923 5.77083 2.26083 5.78125 3.04806ZM24 14.681V23.7449H18.8594V15.2874C18.8594 14.1704 18.6484 13.2954 18.2266 12.6624C17.8047 12.0294 17.1458 11.713 16.25 11.713C15.5938 11.713 15.0443 11.8965 14.6016 12.2635C14.1589 12.6305 13.8281 13.0853 13.6094 13.6278C13.4948 13.947 13.4375 14.3778 13.4375 14.9204V23.7449H8.29688C8.31771 19.5002 8.32812 16.0587 8.32812 13.4204C8.32812 10.7821 8.32292 9.20763 8.3125 8.697L8.29688 7.93104H13.4375V10.2289H13.4062C13.6146 9.88848 13.8281 9.59061 14.0469 9.33529C14.2656 9.07997 14.5599 8.80338 14.9297 8.50551C15.2995 8.20763 15.7526 7.97625 16.2891 7.81136C16.8255 7.64646 17.4219 7.56402 18.0781 7.56402C19.8594 7.56402 21.2917 8.16774 22.375 9.37519C23.4583 10.5826 24 12.3513 24 14.681Z" fill="white"/>
</g>
<defs>
<clipPath id="clip0_98_126">
<rect width="24" height="24" fill="white"/>
</clipPath>
</defs>
</svg>
