<svg width="50" height="67" viewBox="0 0 50 67" fill="none" xmlns="http://www.w3.org/2000/svg">
<g clip-path="url(#clip0_324_152)">
<path d="M10.4173 0C5.82096 0 2.08398 3.73698 2.08398 8.33333V58.3333C2.08398 62.9297 5.82096 66.6667 10.4173 66.6667H39.584C44.1803 66.6667 47.9173 62.9297 47.9173 58.3333V8.33333C47.9173 3.73698 44.1803 0 39.584 0H10.4173ZM20.834 56.25H29.1673C30.3131 56.25 31.2506 57.1875 31.2506 58.3333C31.2506 59.4792 30.3131 60.4167 29.1673 60.4167H20.834C19.6881 60.4167 18.7506 59.4792 18.7506 58.3333C18.7506 57.1875 19.6881 56.25 20.834 56.25Z" fill="black"/>
</g>
<defs>
<clipPath id="clip0_324_152">
<rect width="50" height="66.6667" fill="white"/>
</clipPath>
</defs>
</svg>
