<svg width="40" height="40" viewBox="0 0 40 40" fill="none" xmlns="http://www.w3.org/2000/svg">
<rect x="2" y="2" width="36" height="36" rx="18" stroke="white" stroke-width="4"/>
<path d="M15.7324 14.1777V25.6911C15.7324 26.569 16.6993 27.1025 17.4439 26.6246L26.4901 20.8679C26.6484 20.7677 26.7789 20.629 26.8693 20.4648C26.9597 20.3007 27.0071 20.1163 27.0071 19.9289C27.0071 19.7414 26.9597 19.557 26.8693 19.3929C26.7789 19.2287 26.6484 19.09 26.4901 18.9898L17.4439 13.2442C17.2762 13.1358 17.0825 13.0746 16.883 13.0672C16.6835 13.0597 16.4857 13.1062 16.3104 13.2018C16.1352 13.2974 15.989 13.4385 15.8872 13.6103C15.7855 13.7821 15.732 13.9781 15.7324 14.1777Z" fill="white"/>
</svg>
