<svg width="24" height="24" viewBox="0 0 24 24" fill="none" xmlns="http://www.w3.org/2000/svg">
<g clip-path="url(#clip0_98_128)">
<path d="M7.00649 0C8.32649 0 9.60599 0.3705 10.7085 1.053C12.3552 0.877733 14.0202 1.07197 15.5823 1.62157C17.1444 2.17116 18.5643 3.06228 19.7385 4.23C20.7678 5.25626 21.5847 6.4754 22.1425 7.81766C22.7002 9.15992 22.9879 10.599 22.989 12.0525C22.989 12.5685 22.953 13.083 22.881 13.5915C23.4693 14.636 23.7792 15.8142 23.781 17.013C23.781 17.9314 23.5994 18.8407 23.2468 19.6887C22.8941 20.5366 22.3773 21.3065 21.726 21.954C20.4104 23.2658 18.6279 24.0017 16.77 24C15.51 24 14.283 23.661 13.215 23.034C11.5469 23.2332 9.85545 23.0523 8.26722 22.505C6.67899 21.9576 5.2352 21.058 4.04399 19.8735C3.01496 18.8473 2.19824 17.6284 1.64051 16.2864C1.08277 14.9445 0.794946 13.5058 0.793487 12.0525C0.793487 11.508 0.832487 10.9665 0.913487 10.431C0.156726 9.10203 -0.141662 7.56095 0.0643661 6.04556C0.270394 4.53017 0.969387 3.12469 2.05349 2.046C3.36861 0.736233 5.15041 0.00059726 7.00649 0ZM7.67699 10.515C7.94699 10.9785 8.32199 11.373 8.77049 11.6685C9.36461 12.0573 9.99628 12.3854 10.656 12.648C11.394 12.9555 11.9655 13.218 12.3735 13.4325C12.717 13.6005 13.029 13.8285 13.296 14.1045C13.4985 14.3175 13.611 14.601 13.611 14.8965C13.6194 15.1042 13.5782 15.3109 13.4909 15.4995C13.4035 15.6881 13.2724 15.8532 13.1085 15.981C12.672 16.275 12.1485 16.4145 11.6235 16.377C11.0838 16.3831 10.5487 16.2779 10.0515 16.068C9.78227 15.9484 9.51618 15.8218 9.25349 15.6885C8.98214 15.5443 8.68023 15.4672 8.37299 15.4635C8.09793 15.4521 7.82897 15.5466 7.62149 15.7275C7.52232 15.8218 7.44481 15.9364 7.39431 16.0636C7.3438 16.1908 7.32152 16.3274 7.32899 16.464C7.32269 16.7227 7.4006 16.9764 7.55099 17.187C7.73238 17.417 7.96717 17.5993 8.23499 17.718C9.28055 18.1714 10.414 18.3861 11.553 18.3465C12.3824 18.363 13.2079 18.2283 13.989 17.949C14.6368 17.7191 15.201 17.3007 15.609 16.7475C16.0095 16.1625 16.212 15.465 16.188 14.757C16.2036 14.1784 16.0588 13.6068 15.7695 13.1055C15.4758 12.6289 15.0804 12.2233 14.6115 11.9175C14.0172 11.5341 13.3867 11.2101 12.729 10.95C12.6587 10.9156 12.586 10.8866 12.5115 10.863C11.9983 10.655 11.4916 10.4314 10.992 10.1925C10.6888 10.0501 10.4142 9.85338 10.182 9.612C9.98679 9.40662 9.87919 9.13333 9.88199 8.85C9.87238 8.63409 9.92091 8.41957 10.0225 8.22881C10.1241 8.03805 10.275 7.87805 10.4595 7.7655C10.8975 7.50434 11.4019 7.37566 11.9115 7.395C12.3015 7.3905 12.6915 7.44 13.0695 7.539C13.4805 7.6575 13.8825 7.8045 14.2725 7.9785C14.43 8.052 14.6025 8.091 14.7765 8.0925C14.9034 8.09562 15.0296 8.07185 15.1467 8.02273C15.2639 7.97361 15.3692 7.90026 15.456 7.8075C15.641 7.60507 15.7381 7.33748 15.726 7.0635C15.7305 6.80244 15.6398 6.54866 15.471 6.3495C15.2402 6.10745 14.954 5.92521 14.637 5.8185C14.2929 5.69206 13.9372 5.60011 13.575 5.544C13.0683 5.46107 12.5554 5.42193 12.042 5.427C11.2574 5.42201 10.4779 5.55295 9.73799 5.814C9.0574 6.04354 8.44978 6.44931 7.97699 6.99C7.52215 7.52855 7.28183 8.21587 7.30199 8.9205C7.28699 9.4755 7.41599 10.0245 7.67699 10.515Z" fill="white"/>
</g>
<defs>
<clipPath id="clip0_98_128">
<rect width="24" height="24" fill="white"/>
</clipPath>
</defs>
</svg>
