<svg width="75" height="75" viewBox="0 0 75 75" fill="none" xmlns="http://www.w3.org/2000/svg">
<rect width="75" height="75" rx="10" fill="black"/>
<path d="M45.675 41.25C45.825 40.0125 45.9375 38.775 45.9375 37.5C45.9375 36.225 45.825 34.9875 45.675 33.75H52.0125C52.3125 34.95 52.5 36.2062 52.5 37.5C52.5 38.7938 52.3125 40.05 52.0125 41.25M42.3563 51.675C43.4813 49.5937 44.3438 47.3438 44.9438 45H50.475C48.6584 48.128 45.7765 50.4975 42.3563 51.675ZM41.8875 41.25H33.1125C32.925 40.0125 32.8125 38.775 32.8125 37.5C32.8125 36.225 32.925 34.9688 33.1125 33.75H41.8875C42.0562 34.9688 42.1875 36.225 42.1875 37.5C42.1875 38.775 42.0562 40.0125 41.8875 41.25ZM37.5 52.425C35.9438 50.175 34.6875 47.6812 33.9188 45H41.0812C40.3125 47.6812 39.0562 50.175 37.5 52.425ZM30 30H24.525C26.3229 26.8635 29.2027 24.4903 32.625 23.325C31.5 25.4062 30.6562 27.6562 30 30ZM24.525 45H30C30.6562 47.3438 31.5 49.5937 32.625 51.675C29.2099 50.4969 26.3341 48.127 24.525 45ZM22.9875 41.25C22.6875 40.05 22.5 38.7938 22.5 37.5C22.5 36.2062 22.6875 34.95 22.9875 33.75H29.325C29.175 34.9875 29.0625 36.225 29.0625 37.5C29.0625 38.775 29.175 40.0125 29.325 41.25M37.5 22.5563C39.0562 24.8063 40.3125 27.3188 41.0812 30H33.9188C34.6875 27.3188 35.9438 24.8063 37.5 22.5563ZM50.475 30H44.9438C44.3569 27.6777 43.488 25.4361 42.3563 23.325C45.8062 24.5062 48.675 26.8875 50.475 30ZM37.5 18.75C27.1312 18.75 18.75 27.1875 18.75 37.5C18.75 42.4728 20.7254 47.2419 24.2417 50.7583C25.9828 52.4994 28.0498 53.8805 30.3247 54.8227C32.5995 55.765 35.0377 56.25 37.5 56.25C42.4728 56.25 47.2419 54.2746 50.7583 50.7583C54.2746 47.2419 56.25 42.4728 56.25 37.5C56.25 35.0377 55.765 32.5995 54.8227 30.3247C53.8805 28.0498 52.4994 25.9828 50.7583 24.2417C49.0172 22.5006 46.9502 21.1195 44.6753 20.1773C42.4005 19.235 39.9623 18.75 37.5 18.75Z" fill="white"/>
</svg>
